<?xml version="1.0" encoding="UTF-8" standalone="no"?>
<svg
   xmlns:dc="http://purl.org/dc/elements/1.1/"
   xmlns:cc="http://creativecommons.org/ns#"
   xmlns:rdf="http://www.w3.org/1999/02/22-rdf-syntax-ns#"
   xmlns:svg="http://www.w3.org/2000/svg"
   xmlns="http://www.w3.org/2000/svg"
   viewBox="0 0 299.99997 300"
   height="300"
   width="299.99997"
   version="1.1"
   id="svg4136">
  <metadata
     id="metadata4142">
    <rdf:RDF>
      <cc:Work
         rdf:about="">
        <dc:format>image/svg+xml</dc:format>
        <dc:type
           rdf:resource="http://purl.org/dc/dcmitype/StillImage" />
        <dc:title></dc:title>
      </cc:Work>
    </rdf:RDF>
  </metadata>
  <defs
     id="defs4140" />
  <path
     id="path4195"
     d="M 150,2.7455304 2.4566383,76.372756 l 0,147.254474 L 150,297.25446 l 147.54334,-73.62723 0,-147.254474 z"
     style="fill:none;fill-opacity:1;fill-rule:evenodd;stroke:#3498db;stroke-width:4.91327667px;stroke-linecap:butt;stroke-linejoin:miter;stroke-opacity:1" />
  <g
     style="fill:#3498db;fill-opacity:1;stroke:#3498db;stroke-opacity:1"
     transform="matrix(0.4288786,0,0,0.4288786,58.384558,58.385396)"
     id="g4808">
    <g
       style="fill:#3498db;fill-opacity:1;stroke:#3498db;stroke-opacity:1"
       id="g4754">
	<path
   style="fill:#3498db;fill-opacity:1;stroke:#3498db;stroke-opacity:1"
   d="m 67.696,307.316 c -4.762,5.041 -8.733,10.13 -11.985,14.854 5.562,-31.042 16.4,-51.381 16.53,-51.621 1.053,-1.942 0.332,-4.37 -1.61,-5.423 -1.941,-1.052 -4.37,-0.333 -5.423,1.61 -0.672,1.24 -16.504,30.869 -20.039,74.527 -0.157,1.932 1.095,3.699 2.97,4.191 0.339,0.089 0.68,0.132 1.018,0.132 1.528,0 2.963,-0.88 3.629,-2.321 2.882,-6.231 9.407,-18.474 20.726,-30.456 1.517,-1.605 1.445,-4.137 -0.161,-5.654 -1.606,-1.517 -4.137,-1.446 -5.655,0.161 z"
   id="path4756" />

	<path
   style="fill:#3498db;fill-opacity:1;stroke:#3498db;stroke-opacity:1"
   d="m 422.489,148.053 c -6.892,-16.608 -20.628,-29.394 -37.687,-35.08 L 359.591,104.57 C 357.765,98.497 343.214,61.862 256.073,51.468 209.679,45.933 164.031,54.3 127.544,75.025 89.178,96.816 64.819,130.593 58.957,170.135 50.846,224.841 40.12,281.137 16.758,322.285 c -0.886,1.561 -0.624,3.52 0.64,4.793 1.265,1.272 3.222,1.549 4.789,0.674 l 3.348,-1.87 c -4.232,11.011 -12.406,29.411 -24.683,45.076 -1.363,1.739 -1.058,4.253 0.681,5.616 0.732,0.574 1.602,0.852 2.464,0.852 1.187,0 2.362,-0.526 3.151,-1.533 19.814,-25.284 29.104,-56.212 29.491,-57.517 0.461,-1.56 -0.068,-3.243 -1.338,-4.259 -1.27,-1.015 -3.028,-1.16 -4.448,-0.368 l -0.848,0.473 C 49.708,273.461 59.4,221.688 66.87,171.307 72.365,134.252 95.315,102.529 131.495,81.979 166.508,62.092 210.413,54.08 255.126,59.41 c 45.566,5.435 69.538,18.236 81.625,28.018 6.391,5.173 10.192,10.053 12.402,13.666 -6.091,-1.984 -12.767,-0.476 -17.45,3.958 -7.407,7.011 -12.04,14.498 -13.77,22.252 -1.152,5.165 -4.966,9.043 -9.952,10.121 -13.516,2.922 -27.645,8.186 -37.117,12.086 -8.897,3.664 -13.645,13.417 -11.042,22.688 2.594,9.24 11.694,15.1 21.162,13.637 10.924,-1.692 27.985,-3.742 45.629,-3.561 -8.776,29.967 -8.494,61.922 0.877,92.752 4.468,14.697 6.067,30.244 4.79,46.426 -1.984,-3.605 -4.743,-7.338 -8.561,-10.95 -1.605,-1.518 -4.136,-1.449 -5.655,0.157 -1.518,1.605 -1.448,4.137 0.157,5.655 12.974,12.274 10.901,25.845 10.811,26.394 -0.381,2.141 1.019,4.194 3.15,4.623 0.266,0.053 0.53,0.079 0.792,0.079 1.835,0 3.483,-1.269 3.899,-3.126 5.637,-25.181 5.055,-49.265 -1.729,-71.583 -9.124,-30.013 -9.178,-61.122 -0.234,-90.166 7.903,0.421 15.748,1.366 23.041,3.07 27.544,6.437 41.673,5.524 48.023,4.204 2.068,6.685 1.969,14.806 1.528,18.812 -0.216,1.928 0.982,3.732 2.843,4.281 0.375,0.111 0.756,0.164 1.132,0.164 1.484,0 2.889,-0.831 3.58,-2.216 l 5.653,-11.342 c 8.023,-16.094 8.671,-34.848 1.779,-51.456 z m -62.717,29.762 c -27.485,-6.423 -61.928,-2.684 -80.012,0.116 -5.471,0.851 -10.734,-2.545 -12.236,-7.893 -1.506,-5.365 1.239,-11.008 6.386,-13.128 9.172,-3.777 22.822,-8.867 35.762,-11.665 7.95,-1.719 14.258,-8.077 16.069,-16.198 1.377,-6.17 5.233,-12.289 11.461,-18.184 2.566,-2.429 6.219,-3.251 9.535,-2.145 l 23.669,7.889 c -0.591,4.846 -2.698,14.622 -10.184,19.124 -10.213,6.141 -16.45,11.892 -16.804,21.271 -6.257,-0.731 -12.811,-1.168 -19.596,-1.168 -11.831,0 -24.354,1.315 -37.146,4.646 -1.604,0.418 -3.199,0.795 -4.742,1.122 -2.161,0.458 -3.542,2.58 -3.084,4.742 0.457,2.161 2.579,3.54 4.742,3.084 1.663,-0.352 3.379,-0.758 5.102,-1.207 47.389,-12.342 91.338,4.667 107.881,11.07 l 1.718,0.664 c 1.386,0.532 2.58,1.359 3.605,2.404 -6.139,0.761 -18.92,0.878 -42.126,-4.544 z m 55.133,15.194 c -1.412,-8.25 -5.023,-17.172 -13.745,-20.521 l -1.698,-0.655 c -9.168,-3.548 -26.425,-10.226 -48.097,-13.726 -0.119,-5.234 2.567,-9.257 12.979,-15.518 9.612,-5.78 12.759,-16.803 13.79,-23.404 l 4.139,1.38 c 14.859,4.952 26.824,16.089 32.827,30.556 5.589,13.467 5.485,28.557 -0.195,41.888 z"
   id="path4758" />

	<path
   style="fill:#3498db;fill-opacity:1;stroke:#3498db;stroke-opacity:1"
   d="m 345.057,135.195 c 0.221,0 0.444,-0.018 0.669,-0.056 15.646,-2.635 19.388,-9.145 19.979,-10.423 0.928,-2.005 0.054,-4.382 -1.951,-5.31 -2.006,-0.928 -4.382,-0.054 -5.31,1.951 -1.037,2.242 -8.237,4.905 -14.05,5.894 -2.177,0.368 -3.644,2.431 -3.277,4.608 0.33,1.954 2.022,3.336 3.94,3.336 z"
   id="path4760" />

	<path
   style="fill:#3498db;fill-opacity:1;stroke:#3498db;stroke-opacity:1"
   d="m 247.005,117.098 c -12.209,8.026 -23.936,5.252 -24.485,5.115 -2.132,-0.548 -4.308,0.737 -4.862,2.87 -0.555,2.138 0.728,4.322 2.866,4.877 0.28,0.073 3.224,0.807 7.711,0.807 4.814,0 11.406,-0.856 18.388,-4.268 0.303,1.647 0.778,3.272 1.474,4.842 2.313,5.211 6.516,9.208 11.83,11.25 1.527,0.589 3.239,0.883 5.133,0.883 4.017,0 8.847,-1.323 14.432,-3.958 5.654,-2.668 10.107,-5.747 10.294,-5.877 1.345,-0.934 1.984,-2.593 1.615,-4.188 -0.028,-0.119 -0.45,-1.924 -1.263,-4.537 4.605,-0.392 9.778,-1.733 15.457,-4.052 2.045,-0.835 3.026,-3.17 2.191,-5.215 -0.834,-2.045 -3.168,-3.025 -5.215,-2.191 -6.299,2.574 -17.724,6.12 -23.476,0.96 -12.743,-11.431 -33.9,-8.151 -34.793,-8.005 -2.181,0.354 -3.661,2.409 -3.307,4.589 0.354,2.181 2.414,3.665 4.589,3.307 0.041,-0.007 0.982,-0.152 2.523,-0.275 -0.145,0.327 -0.294,0.651 -0.423,0.986 -0.264,0.686 -0.488,1.381 -0.679,2.08 z m 34.524,7.288 c 0.567,1.591 1.027,3.055 1.364,4.212 -6.528,4.063 -15.83,8.172 -20.091,6.528 -3.322,-1.277 -5.947,-3.774 -7.393,-7.03 -1.445,-3.257 -1.537,-6.881 -0.26,-10.202 0.493,-1.276 1.169,-2.464 2.011,-3.529 0.066,-0.084 0.11,-0.177 0.168,-0.264 3.364,0.33 7.037,1.064 10.437,2.526 -2.492,0.606 -4.46,2.705 -4.762,5.402 -0.386,3.449 2.097,6.559 5.547,6.945 3.449,0.386 6.559,-2.097 6.945,-5.547 0.067,-0.596 0.042,-1.18 -0.052,-1.744 1.794,1.242 3.822,2.151 6.086,2.703 z"
   id="path4762" />

	<path
   style="fill:#3498db;fill-opacity:1;stroke:#3498db;stroke-opacity:1"
   d="m 129.403,300.335 c -1.281,-1.8 -3.78,-2.22 -5.579,-0.937 -15.4,10.97 -29.449,27.907 -40.371,48.478 -1.15,-18.663 2.508,-34.949 10.928,-48.55 7.685,-12.414 16.725,-17.879 16.917,-17.994 1.904,-1.112 2.55,-3.555 1.442,-5.463 -1.109,-1.91 -3.556,-2.561 -5.468,-1.45 -0.43,0.25 -10.64,6.28 -19.431,20.274 -8.005,12.743 -16.358,34.869 -10.694,67.914 0.298,1.74 1.702,3.079 3.455,3.294 0.164,0.02 0.327,0.03 0.49,0.03 1.569,0 3.015,-0.925 3.66,-2.39 10.94,-24.874 26.465,-45.34 43.714,-57.627 1.799,-1.282 2.219,-3.779 0.937,-5.579 z"
   id="path4764" />

	<path
   style="fill:#3498db;fill-opacity:1;stroke:#3498db;stroke-opacity:1"
   d="m 185.161,299.332 c -19.415,12.682 -39.176,19.629 -51.151,23.036 17.529,-22.517 26.95,-43.142 27.394,-44.124 0.91,-2.013 0.016,-4.383 -1.997,-5.293 -2.015,-0.91 -4.383,-0.015 -5.293,1.997 -0.119,0.263 -12.134,26.572 -33.827,51.517 -1.111,1.278 -1.297,3.117 -0.464,4.592 0.717,1.271 2.058,2.033 3.482,2.033 0.229,0 0.459,-0.02 0.69,-0.06 1.35,-0.236 33.422,-6.019 65.541,-27 1.85,-1.208 2.37,-3.687 1.161,-5.536 -1.208,-1.851 -3.687,-2.371 -5.536,-1.162 z"
   id="path4766" />

	<path
   style="fill:#3498db;fill-opacity:1;stroke:#3498db;stroke-opacity:1"
   d="m 305.624,288.425 c -2.201,0.191 -3.83,2.13 -3.638,4.332 1.797,20.666 -9.521,49.546 -17.855,57.479 -7.55,-6.922 -12.983,-18.384 -15.422,-32.673 -0.372,-2.178 -2.444,-3.643 -4.616,-3.27 -2.178,0.372 -3.642,2.438 -3.27,4.616 3.019,17.688 10.383,31.749 20.736,39.59 0.709,0.538 1.56,0.812 2.416,0.812 0.649,0 1.301,-0.158 1.896,-0.479 12.809,-6.899 26.09,-43.715 24.085,-66.768 -0.192,-2.202 -2.115,-3.834 -4.332,-3.639 z"
   id="path4768" />

	<path
   style="fill:#3498db;fill-opacity:1;stroke:#3498db;stroke-opacity:1"
   d="m 246.585,318.281 c -12.421,15.139 -26.006,24.554 -41.35,28.618 3.045,-9.998 4.748,-23.966 4.571,-38.564 -0.128,-10.625 -1.265,-20.452 -3.285,-28.418 -0.543,-2.141 -2.717,-3.437 -4.861,-2.894 -2.142,0.543 -3.437,2.72 -2.894,4.861 1.868,7.364 2.919,16.545 3.041,26.548 0.207,17.106 -2.348,33.638 -6.508,42.116 -0.657,1.339 -0.515,2.933 0.37,4.134 0.761,1.033 1.961,1.628 3.22,1.628 0.205,0 0.411,-0.016 0.618,-0.048 20.27,-3.166 37.692,-13.929 53.262,-32.906 1.401,-1.708 1.153,-4.228 -0.555,-5.629 -1.708,-1.402 -4.228,-1.153 -5.629,0.554 z"
   id="path4770" />

</g>
    <g
       style="fill:#3498db;fill-opacity:1;stroke:#3498db;stroke-opacity:1"
       id="g4772">
</g>
    <g
       style="fill:#3498db;fill-opacity:1;stroke:#3498db;stroke-opacity:1"
       id="g4774">
</g>
    <g
       style="fill:#3498db;fill-opacity:1;stroke:#3498db;stroke-opacity:1"
       id="g4776">
</g>
    <g
       style="fill:#3498db;fill-opacity:1;stroke:#3498db;stroke-opacity:1"
       id="g4778">
</g>
    <g
       style="fill:#3498db;fill-opacity:1;stroke:#3498db;stroke-opacity:1"
       id="g4780">
</g>
    <g
       style="fill:#3498db;fill-opacity:1;stroke:#3498db;stroke-opacity:1"
       id="g4782">
</g>
    <g
       style="fill:#3498db;fill-opacity:1;stroke:#3498db;stroke-opacity:1"
       id="g4784">
</g>
    <g
       style="fill:#3498db;fill-opacity:1;stroke:#3498db;stroke-opacity:1"
       id="g4786">
</g>
    <g
       style="fill:#3498db;fill-opacity:1;stroke:#3498db;stroke-opacity:1"
       id="g4788">
</g>
    <g
       style="fill:#3498db;fill-opacity:1;stroke:#3498db;stroke-opacity:1"
       id="g4790">
</g>
    <g
       style="fill:#3498db;fill-opacity:1;stroke:#3498db;stroke-opacity:1"
       id="g4792">
</g>
    <g
       style="fill:#3498db;fill-opacity:1;stroke:#3498db;stroke-opacity:1"
       id="g4794">
</g>
    <g
       style="fill:#3498db;fill-opacity:1;stroke:#3498db;stroke-opacity:1"
       id="g4796">
</g>
    <g
       style="fill:#3498db;fill-opacity:1;stroke:#3498db;stroke-opacity:1"
       id="g4798">
</g>
    <g
       style="fill:#3498db;fill-opacity:1;stroke:#3498db;stroke-opacity:1"
       id="g4800">
</g>
  </g>
</svg>
