<?xml version="1.0" encoding="UTF-8" standalone="no"?>
<!-- Created with Inkscape (http://www.inkscape.org/) -->

<svg
   xmlns:dc="http://purl.org/dc/elements/1.1/"
   xmlns:cc="http://creativecommons.org/ns#"
   xmlns:rdf="http://www.w3.org/1999/02/22-rdf-syntax-ns#"
   xmlns:svg="http://www.w3.org/2000/svg"
   xmlns="http://www.w3.org/2000/svg"
   xmlns:sodipodi="http://sodipodi.sourceforge.net/DTD/sodipodi-0.dtd"
   xmlns:inkscape="http://www.inkscape.org/namespaces/inkscape"
   id="svg4136"
   version="1.1"
   inkscape:version="0.91 r13725"
   width="363.75"
   height="540"
   viewBox="0 0 363.75 540"
   sodipodi:docname="popeye.jpg">
  <metadata
     id="metadata4142">
    <rdf:RDF>
      <cc:Work
         rdf:about="">
        <dc:format>image/svg+xml</dc:format>
        <dc:type
           rdf:resource="http://purl.org/dc/dcmitype/StillImage" />
      </cc:Work>
    </rdf:RDF>
  </metadata>
  <defs
     id="defs4140" />
  <sodipodi:namedview
     pagecolor="#ffffff"
     bordercolor="#666666"
     borderopacity="1"
     objecttolerance="10"
     gridtolerance="10"
     guidetolerance="10"
     inkscape:pageopacity="0"
     inkscape:pageshadow="2"
     inkscape:window-width="640"
     inkscape:window-height="480"
     id="namedview4138"
     showgrid="false" />
  <path
     inkscape:connector-curvature="0"
     id="path4148"
     d="m 89.051561,539.01771 c -19.7297,-1.39952 -30.0918,-6.7926 -32.6749,-17.00598 -0.6689,-2.64457 -1.7253,-6.77706 -2.3476,-9.18331 -2.7685,-10.70473 1.9722,-20.0385 12.9689,-25.53346 5.948,-2.9722 8.9962,-3.67564 16.2499,-3.75 8.565,-0.0879 8.9435,-0.21883 9.2932,-3.21654 0.2004,-1.71875 1.0137,-4.4188 1.8072,-6.0001 1.1382,-2.26834 0.9862,-4.58829 -0.7204,-10.9931 -3.1002,-11.63436 -3.82,-25.29714 -2.1834,-41.43765 1.7193,-16.95451 5.9252,-38.30991 8.5504,-43.41441 1.222899,-2.37789 1.974299,-7.56477 2.082399,-14.375 0.2647,-16.6815 6.7167,-27.27975 21.0368,-34.55523 4.7226,-2.39937 5.9375,-3.66337 5.9375,-6.17739 0,-3.52366 5.0488,-9.29712 8.1302,-9.29712 1.0967,0 3.7057,0.88522 5.798,1.96717 4.3848,2.26749 6.4312,1.36364 2.8555,-1.26121 -2.3648,-1.73599 -2.3663,-1.88955 -0.078,-8.42459 3.1295,-8.93788 16.9209,-31.81895 20.1138,-33.37038 2.5103,-1.2198 2.5065,-1.24329 -0.213,-1.32639 -5.2907,-0.16168 -6.9717,-8.17784 -3.326,-15.86066 1.8917,-3.98632 2.3314,-4.22245 6.4307,-3.4534 3.139,0.58887 4.1482,0.4176 3.5208,-0.59753 -0.4837,-0.78266 -1.6224,-1.42301 -2.5305,-1.42301 -4.4755,0 -18.6911,-24.50049 -25.0219,-43.125 -2.1825,-6.42075 -4.8765,-11.56593 -7.5266,-14.375 -6.0452,-6.40779 -8.4657,-12.09131 -9.0457,-21.24004 -0.6234,-9.83203 1.7516,-14.48147 10.1024,-19.77741 l 5.465,-3.46577 -5.4236,-9.32088 c -2.983,-5.12649 -5.768,-10.87244 -6.1889,-12.76879 -1.0866,-4.89524 -4.8783,-6.53081 -15.1668,-6.54218 -8.192,-0.009 -9.3107,-0.3269 -12.7518,-3.6231 -6.197699,-5.93663 -6.188199,-10.86211 0.038,-19.601222 1.1022,-1.547222 0.6501,-3.096766 -2.1292,-7.296504 -2.819599,-4.260762 -3.543499,-6.794798 -3.602799,-12.611958 -0.073,-7.126713 -0.1687,-7.321685 -4.5622,-9.268388 -5.4291,-2.405547 -7.3871,-6.29283 -7.3871,-14.666156 0,-10.930159 5.7447,-18.552176 14.000499,-18.575831 4.0113,-0.0115 9.0008,-3.583005 13.3037,-9.522986 13.1543,-18.1590595 39.3057,-24.08272052 55.654,-12.606434 3.844,2.698453 8.2195,10.960979 8.2644,15.606095 0.019,1.951911 1.1052,3.236052 3.4649,4.095642 8.03,2.925121 11.2395,5.276183 10.5905,7.757789 -0.3503,1.339869 0.1465,2.929811 1.1053,3.536936 1.4167,0.897103 1.3585,1.106484 -0.312,1.122053 -1.1296,0.0105 -2.3499,0.790768 -2.7118,1.733869 -0.3619,0.943101 -3.2346,2.96203 -6.3837,4.486508 -6.3832,3.090052 -6.7244,3.757549 -3.4398,6.730029 3.0552,2.764955 7.9637,2.609731 13.6376,-0.431265 5.8076,-3.112682 13.6661,-3.257781 16.925,-0.3125 2.33,2.105765 2.5546,2.026954 6.01,-2.109245 1.9743,-2.363209 3.2652,-4.613209 2.8686,-5 -0.3966,-0.38679 -2.3537,1.244248 -4.3491,3.624528 -1.9954,2.380279 -3.6281,3.928774 -3.6281,3.441101 0,-0.487675 1.9615,-3.057748 4.3588,-5.711274 4.3195,-4.781171 4.3363,-4.844821 1.875,-7.072335 -1.3661,-1.236259 -2.4837,-3.328832 -2.4837,-4.650164 0,-3.119357 6.6061,-9.710111 9.7328,-9.710111 2.706,0 14.0172,11.40941 14.0172,14.13892 0,0.960312 -1.4347,3.29408 -3.1882,5.18615 -3.1715,3.422077 -6.401,3.805732 -11.9307,1.417302 -1.3916,-0.601116 -3.0044,0.46378 -5.3402,3.526118 l -3.3463,4.387319 4.4027,5.767841 c 3.8531,5.047868 4.4027,6.661533 4.4027,12.92737 0,8.832029 -4.7952,17.267606 -12.2567,21.56194 -4.2101,2.423013 -5.2419,3.911633 -7.1681,10.342133 -3.8242,12.76671 -16.1615,23.05691 -30.2627,25.24143 -2.9219,0.45265 -5.3125,1.00589 -5.3125,1.22943 0,0.22352 0.6305,1.7902 1.4011,3.48147 1.3435,2.94867 1.5934,3.0072 6.0801,1.42419 2.5735,-0.90797 9.181,-4.26666 14.6833,-7.46374 16.1236,-9.36841 24.7765,-11.16026 35.783,-7.40996 4.9751,1.69518 6.5186,1.75696 9.9102,0.39665 4.7923,-1.92209 12.5481,-9.84886 14.6856,-15.00917 4.2024,-10.14538 15.6577,-13.038622 24.3317,-6.14539 2.5953,2.0625 5.0633,3.80596 5.4843,3.87435 0.4211,0.0684 3.2024,0.34373 6.1807,0.61187 7.8329,0.70519 15.9594,4.67072 18.1192,8.84173 1.0102,1.95088 3.9257,5.44618 6.4788,7.76734 6.8977,6.27091 9.852,13.87396 8.9063,22.92121 -0.4213,4.03106 -1.9648,10.11594 -3.4301,13.52196 -2.5679,5.96928 -2.5847,6.31721 -0.4658,9.63967 1.209,1.89577 4.9327,6.01208 8.2749,9.14737 3.4477,3.23434 6.0767,6.81168 6.0767,8.26893 0,4.12812 -4.7237,9.15556 -8.6023,9.15556 -2.5878,0 -4.8458,1.65049 -9.2716,6.77685 -3.5823,4.14932 -8.4307,8.0391 -12.5048,10.0324 -3.6598,1.79055 -9.4311,6.09984 -12.8252,9.5762 -6.9702,7.13907 -15.112,11.76169 -24.1176,13.69304 l -6.1253,1.31363 -0.8422,6.34887 c -1.3325,10.0446 -7.6744,33.13934 -12.3341,44.91593 -5.7145,14.44229 -18.4775,35.47649 -25.5206,42.05964 -5.7746,5.39736 -6.6819,8.47916 -1.409,4.78594 3.8032,-2.6639 5.6854,-2.52436 7.3271,0.54321 2.2299,4.16663 -3.1162,12.53037 -9.5376,14.9209 -7.1705,2.66945 -8.5979,4.15175 -11.816,12.27 -1.5562,3.92612 -3.2644,7.71552 -3.7959,8.42088 -1.4662,1.94602 2.4009,8.87737 6.8212,12.22606 2.1609,1.63701 10.281,6.21829 18.0446,10.1806 7.7637,3.96232 16.0929,9.0688 18.5092,11.34775 2.4164,2.27894 6.1651,4.76112 8.3305,5.51597 9.1504,3.18987 12.1867,10.16863 6.7775,15.57782 -2.0542,2.05418 -3.2551,5.32181 -4.1454,11.27893 -1.2192,8.15759 -1.1828,8.36654 1.3295,7.64258 12.6344,-3.64078 23.8543,-3.59636 31.0465,0.12287 1.9355,1.00088 4.6901,4.26485 6.17,7.3109 2.4699,5.0839 2.5492,6.02053 1.0418,12.30432 -0.8974,3.74083 -1.2635,8.7641 -0.8135,11.1628 0.8093,4.31373 0.7573,4.37658 -4.7629,5.76658 -3.0695,0.77294 -7.3286,1.40533 -9.4645,1.40533 -2.136,0 -5.5089,0.84047 -7.4954,1.86772 -5.5405,2.86513 -46.5144,9.54114 -61.3339,9.99335 -15.9581,0.48695 -20.3614,2.1145 -29.0781,10.74797 -24.6963,24.46052 -52.6137,33.88135 -92.101999,31.08025 z m 12.499999,-4.35014 c -1.0313,-0.20396 -6.937499,-1.03811 -13.124999,-1.85366 -8.5446,-1.12624 -13.1288,-2.49954 -19.0625,-5.71051 -4.2969,-2.32522 -7.8125,-3.65766 -7.8125,-2.96097 0,1.97199 15.2431,8.5449 22.6846,9.78174 5.93,0.98561 22.036199,1.67711 17.315399,0.7434 z m 9.0625,-0.167 c -0.8594,-0.34676 -2.2657,-0.34676 -3.125,0 -0.8594,0.34676 -0.1563,0.63049 1.5625,0.63049 1.7187,0 2.4218,-0.28373 1.5625,-0.63049 z m 32.3475,-6.73816 c 4.7244,-1.94819 9.8555,-4.47615 11.4024,-5.61771 3.2082,-2.36749 2.6931,-2.20571 -5.9374,1.86519 -3.4375,1.62142 -10.4688,4.27585 -15.625,5.89875 -7.1427,2.24813 -8.0719,2.76563 -3.9024,2.17334 3.0099,-0.42757 9.338,-2.37139 14.0624,-4.31957 z m -25.943,2.44862 c 13.2289,-1.62242 32.3022,-8.75892 44.4924,-16.64735 11.4492,-7.40887 21.2906,-17.24496 21.2906,-21.27911 0,-3.93705 -0.061,-3.93785 -5.7528,-0.0751 -6.017,4.08322 -14.6102,6.56761 -26.5086,7.66393 l -9.6136,0.88579 6.25,1.67865 c 3.4375,0.92326 7.5156,1.46685 9.0625,1.20799 1.5468,-0.25888 2.8125,0.0139 2.8125,0.60597 0,1.67585 -11.1914,1.23893 -18.125,-0.70762 -10.2613,-2.88075 -14.7011,-4.54647 -20.625,-7.7381 -11.674,-6.28954 -18.8326,-9.40649 -20.328399,-8.85115 -2.0599,0.76478 22.582199,12.31961 36.300199,17.02142 5.9968,2.05537 14.5594,4.23138 19.0282,4.83559 7.3365,0.99196 7.7612,1.20021 4.3763,2.14614 -5.8495,1.63468 -23.5579,-3.50753 -46.0658,-13.3767 -24.609299,-10.7906 -30.200599,-12.11071 -39.560499,-9.3404 -9.1211,2.6996 -14.7677,6.32579 -16.39,10.52554 -1.9432,5.0303 -0.6293,13.34002 2.7897,17.64313 4.1638,5.2406 15.1468,10.8858 25.4753,13.09414 10.8047,2.31016 16.892999,2.44865 31.091999,0.70726 z m 51.408,-16.22056 c 3.4375,-2.54851 8.2187,-6.77544 10.625,-9.39315 3.733,-4.06111 3.2745,-3.83424 -3.125,1.54623 -4.125,3.46813 -9.8907,7.87201 -12.8125,9.7864 -2.9219,1.91437 -5.3125,3.66953 -5.3125,3.90034 0,1.0855 4.9641,-1.64292 10.625,-5.83982 z m -17.5,-16.79623 c 4.8125,-0.41698 11.4789,-1.63404 14.8143,-2.70458 7.2161,-2.31609 17.0607,-11.13268 17.0607,-15.27914 0,-3.99093 -2.2461,-7.65109 -4.2283,-6.89043 -1.2433,0.47708 -1.8546,-1.06253 -2.312,-5.82281 -0.4735,-4.92744 -3.1696,-11.43052 -11.301,-27.25761 -10.4077,-20.25784 -15.1006,-32.79404 -16.3208,-43.59851 -0.33,-2.92174 -0.091,-5.62682 0.531,-6.01128 0.6221,-0.38445 1.1311,0.426 1.1311,1.801 0,1.375 0.4218,2.72695 0.9375,3.00433 1.8337,0.98645 21.0041,-2.50099 24.9379,-4.53664 4.4519,-2.30377 7.1596,-2.69704 6.0344,-0.87645 -0.4058,0.65654 -5.5757,3.03139 -11.4886,5.27744 -5.913,2.24606 -12.3863,5.6115 -14.3852,7.47876 -3.6229,3.38431 -3.628,3.41001 -1.609,8.16005 1.1139,2.62077 2.864,6.82295 3.8891,9.33816 2.4356,5.9763 7.2041,7.92689 19.3781,7.92689 5.263,0 8.9193,0.41326 8.125,0.91836 -0.7943,0.5051 -3.06,0.92698 -5.0348,0.9375 -3.0204,0.0161 -3.3478,0.31164 -2.0619,1.86106 0.8408,1.01306 3.5815,2.23857 6.0906,2.72337 l 4.5619,0.88144 -7.5,1.47147 c -9.412,1.8466 -11.875,2.89871 -11.875,5.07259 0,0.94781 1.9687,5.43435 4.375,9.97007 2.4062,4.53573 4.375,9.05587 4.375,10.04475 0,0.98889 1.2656,2.27902 2.8125,2.86693 20.2085,7.6806 47.764,3.41946 60.1129,-9.29578 5.1015,-5.25282 8.9443,-15.78775 8.0303,-22.01496 -0.3931,-2.67842 0.089,-4.03279 1.751,-4.92242 2.6213,-1.40289 3.1086,-7.32407 0.7933,-9.63938 -1.8139,-1.8139 -3.9567,-2.00023 -2.875,-0.25 2.0651,3.34154 -2.5918,0.65536 -6.5952,-3.80416 -4.6806,-5.2139 -16.212,-13.34731 -27.1548,-19.15307 -12.0409,-6.38829 -14.7202,-8.18107 -18.668,-12.49107 l -3.9793,-4.3443 3.4522,-6.6662 c 4.2978,-8.29932 4.3212,-8.76489 0.3637,-7.26026 -8.4474,3.2117 -27.5721,0.32407 -45.2366,-6.83025 -8.7695,-3.55176 -12.2302,-5.76815 -17.4945,-11.20423 -4.4805,-4.62662 -6.5625,-7.80293 -6.5625,-10.01154 0,-4.78066 -2.7232,-4.00351 -8.7028,2.48364 -6.6771,7.24379 -11.1214,16.91762 -12.7296,27.70796 -0.6925,4.64667 -2.8795,16.88598 -4.8601,27.19848 -6.833299,35.58051 -7.239899,45.19516 -2.929999,69.27921 2.088499,11.67064 3.328399,14.05523 9.426699,18.12958 6.8446,4.5729 15.4789,6.36238 29.4972,6.11335 14.0916,-0.25034 24.0016,-2.54914 32.5267,-7.54517 2.9616,-1.73563 5.6923,-2.84826 6.068,-2.47247 1.5015,1.50144 -9.8773,7.4555 -18.5061,9.68351 -16.7066,4.31374 -22.8477,4.35795 -41.0809,0.29579 -5.8116,-1.29478 -16.0225,-7.84414 -17.001499,-10.90498 -0.7555,-2.3621 -0.8163,-2.3639 -2.491,-0.0736 -0.9442,1.29117 -1.7166,3.53379 -1.7166,4.98357 0,2.20357 1.1791,2.87957 7.187499,4.1207 3.9531,0.81659 9.4375,3.03852 12.1875,4.9376 7.4903,5.17264 18.0623,9.0382 23.125,8.45547 2.4062,-0.27698 8.3125,-0.84477 13.125,-1.26175 z m -42.4292,-60.89396 c -4.0761,-5.81947 -1.256,-16.0326 4.4026,-15.94406 1.1267,0.0176 0.7094,0.84873 -1.141,2.27209 -4.0879,3.14462 -3.3516,8.95112 1.4241,11.22966 2.8306,1.35053 3.2227,2.0149 2.0344,3.44673 -2.112,2.54485 -4.4822,2.19058 -6.7201,-1.00442 z m 108.0542,55.27683 c 7.7515,-0.76445 6.3139,-0.8985 -8.3024,-0.77413 -9.7225,0.0827 -17.4237,0.57231 -17.1137,1.08794 0.6708,1.11581 12.3864,0.97116 25.4161,-0.31381 z m 27.9701,-3.19343 c 12.4459,-2.12225 37.6537,-10.44909 37.6568,-12.43907 0.001,-0.68265 1.1888,-2.92869 2.6393,-4.99119 1.4506,-2.0625 3.0301,-5.902 3.51,-8.53223 0.7955,-4.35961 0.4858,-5.14697 -3.5038,-8.90968 -5.3534,-5.0489 -10.9026,-6.22284 -20.8708,-4.41525 -11.3204,2.05278 -13.0103,3.10859 -13.1216,8.1983 -0.1248,5.7033 -6.2186,12.04403 -15.1213,15.734 -3.6623,1.51794 -6.6587,3.45919 -6.6587,4.31387 0,3.11615 -9.1122,9.23687 -13.7223,9.21739 l -4.4027,-0.0186 4.7792,-4.04392 4.7792,-4.0439 -16.5298,0.1941 -16.5299,0.19411 -1.7186,4.08748 c -1.3856,3.29532 -1.4097,4.287 -0.1244,5.11695 2.808,1.81322 38.3824,0.12784 54.0943,-2.56279 8.25,-1.4128 20.6229,-4.55686 27.4954,-6.98679 14.2937,-5.05383 13.1296,-4.76677 13.1296,-3.2375 0,1.74426 -27.4676,10.01371 -41.875,12.60701 -6.875,1.23747 -10.8822,2.29776 -8.9049,2.3562 1.9774,0.0584 8.7274,-0.76888 15,-1.83849 z m -20.5647,-8.56549 c 4.4601,-4.76837 2.4097,-3.94117 -3.1858,1.28524 -2.6646,2.48875 -3.7196,3.94665 -2.3446,3.23978 1.375,-0.70688 3.8636,-2.74314 5.5304,-4.52502 z m 6.9696,-8.19613 c 8.4466,-3.31463 15.625,-9.66101 15.625,-13.81409 0,-2.5769 -0.3439,-2.45984 -4.921,1.67538 -9.537,8.61608 -33.7449,12.90271 -52.2857,9.25848 -4.9949,-0.98175 -8.9324,-1.59815 -8.75,-1.36976 0.1824,0.22839 1.7379,2.1018 3.4567,4.16314 l 3.125,3.7479 18.125,-0.35895 c 15.5408,-0.30778 19.1943,-0.77858 25.625,-3.3021 z m -61.4413,-40.20941 c -3.7989,-1.49493 -4.3412,-1.21415 -2.8905,1.49648 1.1481,2.14525 1.7032,2.31338 3.2901,0.99637 1.692,-1.4042 1.6466,-1.68764 -0.3996,-2.49285 z m 23.3054,-71.26962 c 4.2189,-4.41471 4.7001,-6.06461 1.7688,-6.06461 -1.0956,0 -2.2945,-1.15681 -2.6642,-2.5707 -0.4716,-1.80322 -1.2763,-2.30919 -2.6955,-1.69477 -1.1128,0.48176 -4.3763,1.51494 -7.2522,2.29597 -4.8151,1.30765 -11.6223,7.40991 -10.0357,8.99647 0.6359,0.63598 10.7002,2.53954 14.9413,2.82601 1.1971,0.0809 3.869,-1.62391 5.9375,-3.78837 z m 9.0734,-1.31372 c 1.8906,-1.33161 3.4375,-2.66408 3.4375,-2.961 0,-0.29694 -1.5469,-0.50877 -3.4375,-0.47073 -2.2922,0.0461 -4.4491,1.34728 -6.4737,3.9052 l -3.0361,3.83605 3.0361,-0.9442 c 1.6699,-0.51931 4.583,-2.03371 6.4737,-3.36532 z m -30.3125,-1.00089 c 3.7126,-3.71263 3.1288,-4.5945 -3.6352,-5.49179 -13.7671,-1.82626 -27.7072,-8.84699 -34.3815,-17.31577 -3.0028,-3.8101 -3.2065,-3.88557 -3.2195,-1.19287 -0.038,7.80949 7.0104,14.28509 23.5737,21.65912 12.4071,5.52366 14.2375,5.7663 17.6625,2.34131 z m 102.5,-129.31016 c 9.8333,-4.96243 14.1129,-8.47695 20.6208,-16.93445 12.3126,-16.00114 17.039,-33.9651 12.6481,-48.07207 -2.1587,-6.93519 -1.5545,-9.58985 0.7768,-3.4134 0.8263,2.18904 2.1587,3.98008 2.9609,3.98008 2.6339,0 5.4942,-8.2754 5.4659,-15.8139 -0.034,-8.97826 -3.3679,-16.88404 -9.7216,-23.05134 -2.5442,-2.46964 -5.8847,-5.91675 -7.4231,-7.66025 -2.7314,-3.09543 -10.904,-5.9745 -16.9595,-5.9745 -1.6635,0 -5.148,-1.6875 -7.7433,-3.75 -5.8201,-4.62519 -10.4606,-4.77876 -15.5291,-0.51388 -4.3297,3.64319 -4.8912,5.51165 -1.6584,5.51855 1.5273,0.003 1.0558,0.70751 -1.5625,2.33371 -5.0032,3.10732 -8.8154,7.38265 -11.9108,13.35781 -1.4044,2.71085 -2.2142,3.66318 -1.7996,2.11631 0.9684,-3.61311 -1.9004,-3.78133 -5.0542,-0.29636 -2.2557,2.49246 -3.2698,12.74115 -1.4417,14.56927 0.4595,0.45948 3.4,-1.00631 6.5344,-3.25729 8.1655,-5.86403 8.1934,-3.93287 0.032,2.22892 -16.7105,12.61651 -24.078,31.80485 -18.9649,49.39322 l 2.077,7.14473 4.6388,-0.64553 c 3.1484,-0.43812 3.6645,-0.3419 1.6065,0.29948 -4.0638,1.26644 -4.6733,3.67712 -1.1023,4.35944 1.9717,0.37675 1.4717,0.60502 -1.5802,0.72138 -2.4557,0.0936 -7.0743,-0.71891 -10.2637,-1.80563 -5.6922,-1.93954 -5.8744,-1.91863 -9.9102,1.13693 -2.2612,1.71205 -5.4988,3.30432 -7.1946,3.53837 -2.2563,0.31141 -3.3986,1.52963 -4.2587,4.54182 -0.7522,2.63375 -0.7349,4.55689 0.048,5.3397 1.8449,1.84499 21.4123,8.25179 33.8199,11.0734 15.9599,3.62944 16.3491,3.67811 26.5991,3.32653 7.3353,-0.25162 10.8708,-1.07643 16.25,-3.79105 z m -18.7831,-1.35465 c -1.398,-1.68455 -1.1707,-1.75572 1.8907,-0.5918 4.2528,1.61692 8.9174,-0.90519 9.7562,-5.2751 0.5024,-2.61759 0.5592,-2.5858 0.7159,0.40047 0.3202,6.10117 -8.5726,10.03328 -12.3628,5.46643 z m -0.3836,-37.66853 c -1.8136,-1.81357 -0.6815,-5.55342 1.9792,-6.53798 3.5212,-1.30302 7.238,2.82871 4.7581,5.28916 -1.1219,1.11303 -1.273,0.94304 -0.64,-0.7198 1.0281,-2.70065 -2.6843,-4.45405 -4.8272,-2.27987 -1.1406,1.15739 -0.9241,1.90928 0.948,3.29098 1.8655,1.37687 1.9859,1.79085 0.5208,1.79085 -1.0481,0 -2.2806,-0.375 -2.7389,-0.83334 z m 8.8482,-11.24532 c -3.0227,-1.59187 -3.2693,-2.14844 -2.0182,-4.5549 2.1554,-4.14583 2.6262,-4.33037 1.7073,-0.66923 -0.6701,2.67005 -0.3242,3.47841 1.7734,4.14416 1.4333,0.4549 2.606,1.35169 2.606,1.99287 0,0.64116 -0.1407,1.10608 -0.3125,1.03316 -0.1719,-0.0729 -1.8621,-0.94865 -3.756,-1.94606 z m 10.568,-15.99794 c -0.8297,-1.82101 -3.0797,-3.56049 -5.5132,-4.26226 -3.9932,-1.15159 -4.0125,-1.18892 -0.6738,-1.2984 3.6872,-0.12088 8.4375,3.68621 8.4375,6.76226 0,2.67163 -0.6419,2.3289 -2.2505,-1.2016 z m -77.7379,58.71396 c -2.5335,-2.69678 -2.7296,-3.53965 -1.4679,-6.30881 2.0908,-4.58885 1.8063,-7.22326 -1.0437,-9.66351 -3.3598,-2.87671 -3.1491,-7.15754 0.6051,-12.29269 1.7078,-2.33604 5.0257,-7.08424 7.3731,-10.55154 4.5619,-6.73818 8.2718,-10.47327 8.2718,-8.32803 0,0.71438 -0.4892,1.48638 -1.0871,1.71556 -2.2171,0.84983 -13.9129,19.48957 -13.9129,22.1732 0,4.94473 2.2879,7.61846 6.5191,7.61846 3.0335,0 5.0928,-1.24833 9.0185,-5.46708 5.3239,-5.72132 7.9013,-12.38385 8.4466,-21.83443 0.284,-4.92306 -0.1934,-5.93196 -5.1466,-10.87474 -4.6278,-4.61814 -6.8568,-5.77761 -14.6298,-7.61011 -15.6208,-3.68259 -29.022,0.3747 -36.8274,11.14972 -4.485,6.19141 -4.6693,11.21145 -0.5623,15.31845 4.4913,4.49129 5.6819,3.83372 5.6819,-3.13831 0,-5.2164 0.6463,-6.94269 4.0517,-10.82122 4.6677,-5.31623 12.3995,-9.2311 17.8233,-9.02461 3.2914,0.12533 3.3678,0.20377 0.625,0.64157 -7.6211,1.21641 -13.5826,4.4098 -16.7413,8.96775 -4.0349,5.82235 -4.4455,13.21991 -0.8409,15.14903 4.196,2.24564 7.2484,1.54405 8.1034,-1.86253 1.1962,-4.76628 9.4203,-13.19065 15.5202,-15.8982 2.979,-1.3223 5.7289,-2.09166 6.1108,-1.70972 0.6641,0.66411 -4.9711,3.26443 -7.0744,3.26443 -1.1819,0 -11.2788,10.73951 -11.432,12.15958 -0.057,0.53098 -0.2673,2.37167 -0.4666,4.09042 -0.4683,4.03754 1.1738,7.1262 4.3194,8.12457 3.9575,1.25607 3.0015,3.53796 -1.1356,2.71054 -4.2989,-0.85979 -5.113,0.52614 -5.113,8.7042 0,9.98783 5.4798,16.71069 13.621,16.71069 l 4.3147,0 -2.9241,-3.11264 z m 112.7847,-15.93932 c 2.5692,-1.99784 5.6004,-5.20536 6.736,-7.12783 1.422,-2.4072 2.7911,-3.30543 4.3979,-2.88526 3.2465,0.84899 6.0698,-1.8596 6.0698,-5.8233 0,-2.41279 -1.5316,-4.61246 -5.5506,-7.97195 -3.0528,-2.55184 -6.1249,-4.6397 -6.8268,-4.6397 -0.702,0 -1.8735,2.39062 -2.6034,5.3125 -3.4737,13.9047 -4.3554,16.4524 -7.0877,20.47859 -3.1852,4.69369 -3.9466,8.69665 -1.369,7.19792 0.8593,-0.49969 3.6645,-2.54312 6.2338,-4.54097 z m -86.5463,-4.45913 c 0,-0.5561 -0.7829,-2.08174 -1.7398,-3.39031 -1.4781,-2.02149 -2.042,-2.12838 -3.75,-0.71086 -2.6043,2.16136 -2.5468,3.53872 0.1773,4.2506 3.6635,0.9574 5.3125,0.91101 5.3125,-0.14943 z m -75.5715,-10.86309 c 1.9098,-6.56943 3.7226,-9.41676 7.3444,-11.53575 2.0805,-1.21721 3.8393,-6.59007 2.1572,-6.59007 -2.5693,0 -8.8364,6.51701 -11.4409,11.89725 -3.2313,6.67504 -4.5455,7.72007 -5.5859,4.44199 -1.9359,-6.09945 9.8842,-20.08924 16.9736,-20.08924 2.0844,0 5.5805,-1.342 7.769,-2.98223 11.6919,-8.7628 25.9574,-11.18442 38.6849,-6.56695 l 5.9558,2.16077 5.1684,-3.58045 5.1684,-3.58043 0.1258,-12.72564 c 0.092,-9.31039 -0.2872,-12.72555 -1.4129,-12.72534 -2.3453,4.3e-4 -3.2533,5.60175 -2.4539,15.13703 1.2283,14.65131 -2.9875,9.872 -5.8459,-6.62733 l -1.4493,-8.36558 -6.9351,2.81862 c -3.8143,1.55024 -8.2368,3.73039 -9.8278,4.84478 l -2.8928,2.02616 4.8297,2.01796 c 7.6035,3.17694 15.728,11.89864 11.084,11.89864 -1.096,0 -1.6871,-0.49458 -1.3135,-1.09906 1.0298,-1.66629 -4.8238,-6.95199 -10.5669,-9.54178 -4.9631,-2.23807 -5.287,-2.23757 -11.5978,0.0181 -3.5706,1.2763 -7.1138,3.15491 -7.8738,4.1747 -2.0004,2.68436 -5.4932,0.85608 -5.4932,-2.87538 0,-2.68036 -1.2621,-3.72331 -8.4375,-6.97289 -8.5928,-3.89141 -16.5386,-8.72741 -16.554,-10.07514 0,-0.4105 2.8777,0.682 6.4052,2.42777 9.1662,4.53629 24.0039,4.61172 32.9475,0.1675 12.5953,-6.25879 21.7017,-19.00423 22.076,-30.897793 0.1154,-3.666074 0.3873,-4.631229 0.7081,-2.513622 0.6224,4.109061 0.8033,4.136671 6.0115,0.917796 5.3122,-3.283014 8.0932,-9.361278 8.0932,-17.688648 0,-8.294515 -3.0718,-14.39898 -8.8466,-17.580631 -4.832,-2.662169 -12.8094,-2.340692 -15.7863,0.636155 -1.5518,1.551823 -1.3634,2.415835 1.422,6.520311 4.5199,6.660473 4.2817,12.513855 -0.7582,18.628065 -2.1829,2.648303 -5.8211,5.588965 -8.0848,6.534805 -5.0146,2.095215 -15.2706,2.237218 -20.0523,0.277639 -13.7306,-5.626969 -33.8055,-1.306096 -27.7624,5.975505 1.1221,1.351934 0.9275,1.712498 -0.9159,1.697428 -6.791,-0.0555 -7.0976,-5.397549 -0.5299,-9.233314 3.2811,-1.916215 6.618,-2.525835 14.0551,-2.567678 5.3639,-0.03017 9.754,-0.433123 9.7559,-0.895431 0.01,-1.975787 -9.5631,-3.807626 -16.5731,-3.171986 -6.2567,0.567345 -8.1452,1.338914 -11.6927,4.777294 -4.726,4.580632 -5.7073,10.705182 -2.2666,14.145965 1.0804,1.08036 1.4305,1.96429 0.7781,1.96429 -2.3594,0 -4.4789,-4.06351 -4.3573,-8.353785 0.1508,-5.319604 5.0579,-10.938449 11.373,-13.022629 2.4337,-0.803205 8.026,-1.170875 12.7107,-0.835684 8.0018,0.572529 8.343,0.483076 7.8569,-2.060043 -0.6736,-3.523353 4.1232,-9.491333 7.5776,-9.427815 2.4974,0.04593 2.4398,0.20306 -0.6999,1.906599 -6.4553,3.502656 -6.1071,12.6618 0.6427,16.901714 8.5833,5.391646 22.2269,0.935621 28.523,-9.315648 4.7792,-7.781587 -0.7173,-17.042682 -10.115,-17.042682 -2.6711,0 -5.2041,0.5625 -5.629,1.25 -0.4249,0.6875 -1.4425,1.23211 -2.2613,1.210246 -0.8188,-0.02186 -0.459,-0.820206 0.7997,-1.774091 2.1399,-1.621776 2.1532,-1.882855 0.2058,-4.022745 -1.1454,-1.258625 -3.8627,-5.343722 -6.0384,-9.077994 -2.6238,-4.503407 -5.1275,-7.173811 -7.4354,-7.930676 -5.0447,-1.654375 -7.5892,0.829539 -6.6969,6.537275 0.5559,3.555684 0.4285,3.972263 -0.6435,2.104968 -0.7351,-1.28041 -1.0273,-4.233535 -0.6494,-6.5625 0.6477,-3.990967 0.4803,-4.234483 -2.9104,-4.234483 -1.9788,0 -3.9786,0.616395 -4.4443,1.369767 -0.5285,0.85525 -2.8133,1.074834 -6.0825,0.584583 -10.7667,-1.614563 -30.4944,7.80172 -37.488,17.893479 -3.1251,4.509513 -3.4696,5.936356 -2.9733,12.313848 0.3087,3.967328 1.8526,10.166448 3.431,13.775823 2.4018,5.492415 3.4051,6.569723 6.1533,6.606794 1.806,0.02436 4.6898,0.891577 6.4086,1.927145 l 3.125,1.882849 -3.125,-0.949478 c -5.1789,-1.573502 -10.3022,-0.892216 -12.135,1.613699 -6.0614,8.287134 -0.2329,19.231494 10.2419,19.231494 4.3473,0 9.3931,-3.4742 9.3931,-6.46753 0,-1.33651 0.5625,-2.08237 1.25,-1.65747 0.6875,0.4249 1.25,2.38894 1.25,4.36454 0,2.29478 0.7899,3.86959 2.1875,4.36067 1.2225,0.42961 5.4108,7.38103 9.4948,15.75895 4.3933,9.01249 8.5241,15.7875 10.3585,16.98948 3.9413,2.58243 17.8465,2.5758 26.9136,-0.0129 9.8474,-2.81141 17.517,-3.65961 21.0456,-2.32749 2.6654,1.00627 2.2059,1.1897 -3.125,1.24739 -3.4375,0.0373 -10.6994,1.23238 -16.1375,2.65596 -11.8136,3.09258 -18.6736,3.25939 -26.3842,0.6416 -5.3232,-1.8073 -6.0643,-1.78491 -10.3452,0.3125 -9.5116,4.66024 -13.2288,19.17826 -7.6241,29.77774 2.7297,5.1623 8.3483,13.10649 9.2697,13.10649 0.2895,0 1.4257,-3.09337 2.5248,-6.87417 z m -31.9721,-81.93706 c -3.0762,-4.32005 -5.1235,-4.2705 -6.3599,0.15392 l -0.8473,3.03233 -0.1247,-2.89468 c -0.2962,-6.88083 5.1816,-9.946318 10.574,-5.91749 2.3435,1.75085 2.3303,1.7886 -0.3861,1.10421 -3.3765,-0.85074 -3.7366,1.45729 -0.8666,5.55483 1.0703,1.52797 1.6711,2.77813 1.3352,2.77813 -0.336,0 -1.832,-1.71506 -3.3247,-3.81125 z m 1.1195,-31.250582 -2.9509,-2.56183 4.375,2.0958 c 5.4324,2.602334 5.9203,3.027859 3.4718,3.027859 -1.0697,0 -3.2728,-1.152824 -4.8959,-2.561829 z m 27.6741,0.28438 c 0,-0.778205 1.3303,-2.286581 2.9562,-3.351945 2.2472,-1.472416 3.7463,-1.63666 6.25,-0.684755 4.3604,1.657815 4.1671,2.259353 -0.5056,1.573547 -2.5083,-0.368143 -4.632,0.195997 -6.25,1.660226 -1.3513,1.222936 -2.4506,1.583123 -2.4506,0.802927 z m -23.789,-5.002742 c -1.5488,-1.254105 -2.5954,-2.80098 -2.326,-3.4375 0.2695,-0.63652 2.1076,0.389566 4.0846,2.280191 4.0041,3.829107 2.6453,4.723353 -1.7586,1.157309 z m 26.914,-10.219809 c -5.7431,-5.5 -10.9767,-10 -11.6304,-10 -1.9345,0 -3.7354,2.864821 -4.3217,6.875 -0.4477,3.061589 -0.5827,2.790214 -0.7356,-1.478265 -0.1528,-4.263808 0.2851,-5.37822 2.3739,-6.04116 3.0754,-0.976106 6.8277,1.304192 13.3984,8.142387 9.519,9.906451 17.2179,13.825463 13.9748,7.113678 -1.2768,-2.642349 -1.2554,-2.653038 0.6216,-0.310228 2.6941,3.362698 2.4286,5.698588 -0.6476,5.698588 -1.536,0 -6.8448,-4.073198 -13.0334,-10 z m 18.8208,3.471867 c -1.9866,-2.83628 -2.7038,-9.737342 -1.0083,-9.702726 2.9204,0.05963 6.5625,5.553158 6.5625,9.898683 0,3.405786 -3.1082,3.296126 -5.5542,-0.195957 z m -14.3471,-20.242701 c -0.054,-1.317707 0.2411,-2.055988 0.6565,-1.640625 0.4153,0.415365 0.4597,1.49349 0.099,2.395834 -0.3991,0.997166 -0.6953,0.70097 -0.7552,-0.755209 z m 71.0715,120.208327 c 0.7781,-2.23438 2.8019,-6.15981 4.4973,-8.72319 1.6953,-2.56339 3.0825,-4.96349 3.0825,-5.33356 0,-1.02055 -11.4707,5.0083 -15.012,7.8901 l -3.113,2.53335 3.6713,3.8479 c 2.0193,2.11635 4.0736,3.8479 4.5652,3.8479 0.4917,0 1.5305,-1.82813 2.3087,-4.0625 z M 100.68916,60.983616 c -1.881999,-3.946582 -1.874099,-4.483085 0.1099,-7.51114 4.4258,-6.754649 21.7812,-15.70669 33.8774,-17.474214 3.4375,-0.502295 6.8125,-1.280368 7.5,-1.72905 0.6875,-0.448681 3.5,-0.869295 6.25,-0.934696 2.75,-0.0654 9.4111,-0.90356 14.8024,-1.862575 l 9.8023,-1.743664 -0.7072,-4.358114 c -0.8852,-5.455252 -4.1718,-9.938169 -9.6531,-13.166735 -6.3304,-3.7287265 -22.1779,-3.3942075 -30.5748,0.645391 -6.7378,3.241398 -18.2504,14.344057 -20.7654,20.025997 -1.0765,2.431983 -1.9029,3.09787 -2.5794,2.0785 -0.7361,-1.109027 -1.3071,-0.973439 -2.1911,0.520297 -0.7507,1.268425 -2.2886,1.811242 -4.1329,1.458695 -6.545999,-1.251366 -13.971099,9.449973 -12.439399,17.928292 0.7961,4.40648 2.3575,6.463739 7.1003,9.355619 4.885199,2.978639 6.059999,1.923999 3.600999,-3.232603 z m 133.8048,-13.720503 c 1.8192,-1.685922 3.306,-3.514047 3.3042,-4.0625 -0.001,-0.548452 -2.1209,-3.452657 -4.7089,-6.453788 l -4.7054,-5.456604 -5.3619,5.361909 -5.3619,5.361908 4.6728,4.157195 c 5.5774,4.961988 7.7726,5.159078 12.1611,1.09188 z m -84.5793,-6.47959 c 1.1366,-2.961831 -1.2904,-6.080096 -4.7323,-6.080096 -3.0605,0 -4.4823,2.853236 -3.1508,6.323016 0.9503,2.476283 6.9102,2.292628 7.8831,-0.24292 z m 71.2411,-3.892596 c 0.4267,-1.203125 1.6212,-3.171875 2.6545,-4.375 1.0333,-1.203125 1.3351,-2.1875 0.6707,-2.1875 -1.9302,0 -6.6794,4.922941 -6.6794,6.923694 0,2.54785 2.4148,2.287817 3.3542,-0.361194 z m -22.1042,4.0625 c 5.7071,-2.197804 7.9525,-2.165366 3.125,0.04514 -2.0625,0.944402 -4.5938,1.699673 -5.625,1.678378 -1.0313,-0.0213 0.094,-0.79688 2.5,-1.723522 z m -1.25,-5.970948 c 0,-0.238648 1.8281,-1.772208 4.0625,-3.407912 2.5138,-1.840318 3.3869,-2.142161 2.2903,-0.791828 -1.6647,2.049724 -6.3528,5.149007 -6.3528,4.19974 z"
     style="fill:#0d0c0b" />
  <path
     style="fill:#000000;fill-opacity:1;stroke:none;stroke-width:3;stroke-linecap:square;stroke-miterlimit:4;stroke-dasharray:none;stroke-opacity:1"
     d="m 85.039827,537.96388 c -10.410416,-1.28543 -20.403893,-5.19173 -24.180427,-9.45177 -5.012745,-5.6545 -8.48413,-23.77515 -5.466852,-28.53697 0.789356,-1.24576 1.165477,-0.007 1.073288,3.53553 -0.219334,8.42774 2.854554,14.05897 10.19307,18.67322 21.843936,13.73487 55.205304,12.52686 86.069504,-3.11657 8.0958,-4.10334 11.1158,-4.80149 6.86776,-1.58764 -1.49885,1.13396 -2.35447,2.43244 -1.90138,2.88553 1.88872,1.88872 23.71845,-14.81495 23.71845,-18.14889 0,-0.80785 -1.1638,-0.4156 -2.58623,0.87167 -4.63408,4.19379 -4.88689,2.46472 -0.38869,-2.65845 2.41402,-2.74942 4.38914,-6.56779 4.38914,-8.48528 0,-4.1841 -1.00015,-4.30042 -5.65686,-0.6579 -6.5565,5.12858 -7.06179,2.87814 -0.67551,-3.00854 6.16123,-5.67921 7.50667,-9.25631 5.47396,-14.55346 -0.47213,-1.23035 -1.66359,-2.23699 -2.64768,-2.23699 -1.01147,0 -2.20701,-2.61274 -2.75026,-6.0104 -0.52854,-3.30573 -5.38285,-15.16559 -10.78735,-26.35527 -9.58181,-19.83855 -12.67631,-28.18746 -6.992,-18.86431 3.31309,5.43396 7.59127,7.35206 16.70314,7.48877 4.29176,0.0643 5.70543,0.46144 4.01347,1.12725 -2.12893,0.83777 -2.2597,1.30736 -0.70711,2.53914 1.04768,0.8312 2.85947,1.8211 4.0262,2.19978 1.16672,0.37867 -1.05578,1.59774 -4.93891,2.70903 -3.97303,1.13701 -7.23972,2.9526 -7.47073,4.15214 -0.22579,1.17241 1.84996,7.02416 4.61277,13.00389 4.30075,9.30841 5.68046,11.06212 9.59206,12.19226 l 4.56877,1.31999 -4.63853,0.12756 -4.63854,0.12756 3.22432,4.39918 3.22432,4.39918 19.09189,-0.61645 c 15.80211,-0.51024 20.31031,-1.15949 26.16295,-3.76789 8.26162,-3.68205 14.84924,-9.52199 14.84924,-13.16389 0,-3.3892 -0.43869,-3.28824 -7.29551,1.6788 -3.22123,2.33346 -6.84049,4.24264 -8.0428,4.24264 -1.20231,0 0.70516,-1.83351 4.2388,-4.07449 9.46154,-6.00035 15.34215,-15.85893 15.34215,-25.72044 0,-2.15436 1.11369,-5.86558 2.47487,-8.24717 2.87876,-5.03682 1.29066,-9.23043 -3.59381,-9.49 -1.61372,-0.0857 -6.50834,-3.34163 -10.87694,-7.2353 -4.36859,-3.89367 -14.06327,-10.50567 -21.54372,-14.69332 -7.48046,-4.18767 -15.72355,-9.70484 -18.31799,-12.26038 l -4.71716,-4.64645 2.91468,-5.71326 c 1.60308,-3.1423 2.69982,-6.77896 2.4372,-8.08148 -0.26262,-1.30252 0.97882,-3.53286 2.75875,-4.95633 3.89847,-3.11773 2.92028,-5.52636 -1.76664,-4.35002 -2.51617,0.63152 -4.26565,-0.0962 -6.79637,-2.82684 -3.35004,-3.61476 -3.51128,-3.64082 -9.48433,-1.53342 -3.34199,1.17913 -6.8649,2.7983 -7.82869,3.59817 -1.19072,0.98822 -1.90972,0.991 -2.24341,0.008 -0.27009,-0.79509 -3.9447,-2.09932 -8.16579,-2.89827 -10.77078,-2.03862 -21.4342,-7.24855 -28.87613,-14.10828 -5.79357,-5.34033 -6.48849,-5.63356 -7.84103,-3.30868 -0.81623,1.40303 -1.50341,1.75546 -1.52707,0.78319 -0.13883,-5.70687 -11.51542,4.33445 -16.75163,14.78552 -3.354,6.69428 -3.5619,7.57262 -9.59625,40.54108 -6.315347,34.50367 -7.269843,49.72918 -4.222622,67.35643 1.277383,7.38926 2.691052,14.62841 3.141492,16.087 0.5719,1.85192 0.29892,2.33057 -0.904865,1.58658 -2.087911,-1.2904 -4.184652,1.67006 -4.214382,5.95042 -0.01725,2.4835 1.057389,3.32698 5.281647,4.14551 4.87459,0.94455 5.0175,1.10053 1.76777,1.92958 -3.44752,0.87951 -3.394709,0.9806 2.12132,4.06084 6.32,3.5292 4.06931,3.1823 -8.485286,-1.30783 -8.315475,-2.97402 -17.337001,-3.21758 -27.577164,-0.7445 -2.049839,0.49504 -1.158422,-0.32637 2.12132,-1.95475 3.37407,-1.67523 8.583129,-2.82358 12.908312,-2.84571 4.035666,-0.0206 7.899288,-0.82104 8.712282,-1.80485 3.024411,-3.65989 3.322407,-12.25698 0.922376,-26.61021 -2.126512,-12.71746 -2.229648,-16.8583 -0.788648,-31.66373 1.672585,-17.18485 6.08565,-41.14354 8.415038,-45.68556 0.69391,-1.35304 1.67169,-7.55124 2.17284,-13.77378 1.31765,-16.3606 5.77012,-24.80739 16.85199,-31.96994 6.03482,-3.9005 9.25475,-7.11494 10.97424,-10.95556 2.88103,-6.43498 5.39693,-7.69312 11.2817,-5.64168 4.91682,1.71402 6.82109,0.80131 4.40419,-2.11088 -1.23194,-1.4844 -1.12529,-3.36781 0.44231,-7.81083 2.69041,-7.62544 12.56866,-24.4909 17.90298,-30.56636 4.18479,-4.76621 4.18738,-4.78034 0.96019,-5.23808 -2.52606,-0.35829 -3.33588,-1.50403 -3.69158,-5.22287 -0.25062,-2.62014 0.31665,-6.62842 1.26059,-8.9073 1.49016,-3.59756 2.24882,-4.02642 5.75896,-3.25546 5.20873,1.14403 5.15397,-0.81173 -0.13216,-4.71994 -5.61582,-4.15179 -14.68181,-19.7437 -22.18437,-38.15309 -6.75921,-16.58537 -6.94766,-17.20625 -4.47061,-14.7292 2.73116,2.73116 3.48914,2.06517 5.3944,-4.73975 0.99121,-3.54024 3.6195,-8.15205 5.84065,-10.24846 4.27813,-4.03787 5.38048,-8.77058 2.04285,-8.77058 -2.32499,0 -8.41437,6.88559 -11.71875,13.25101 -2.79576,5.38566 -4.28882,2.55564 -1.80953,-3.42989 2.07176,-5.00167 10.40887,-12.64606 13.80533,-12.65826 1.33411,-0.005 4.24849,-0.95939 6.4764,-2.12132 5.82572,-3.03833 5.94889,-2.69829 1.04551,2.88635 -5.05888,5.76174 -5.6833,11.47426 -1.78099,16.2934 3.63418,4.48803 6.976,2.7936 7.67064,-3.88929 l 0.55945,-5.38225 0.23773,5.33362 c 0.18998,4.26223 0.98131,5.67241 3.9394,7.02021 3.26705,1.48856 4.01425,1.30057 6.36396,-1.60121 l 2.6623,-3.28779 0.0216,4.04576 c 0.0251,4.69552 1.01961,6.47185 4.92809,8.80255 2.82843,1.68664 2.82843,1.68664 0,1.48405 -6.0883,-0.43608 -6.36396,-0.0679 -6.36396,8.49989 0,6.94866 0.62419,9.11858 3.66125,12.72792 2.98295,3.54503 4.72659,4.35115 9.41157,4.35115 5.48126,0 5.64081,-0.12103 3.40983,-2.58623 -3.62887,-4.00985 -2.81775,-4.3661 3.18211,-1.39761 12.07775,5.9756 34.28546,11.35096 50.00865,12.10457 14.90429,0.71436 15.41772,0.63551 24.28445,-3.72957 20.41817,-10.05183 36.55455,-38.32051 33.76138,-59.14516 -0.67315,-5.01871 -0.42788,-5.76899 1.82229,-5.57465 3.74918,0.32382 6.66106,-9.11285 5.73339,-18.58045 -1.61396,-16.47159 -18.86555,-34.12329 -33.45154,-34.22734 -1.16673,-0.008 -4.6669,-1.583 -7.77817,-3.49929 -3.11127,-1.91628 -7.32112,-3.50401 -9.35522,-3.52829 -4.58003,-0.0547 -11.44982,5.13735 -10.85872,8.20672 0.24087,1.25073 -1.92654,4.41022 -4.81647,7.0211 -2.88993,2.61088 -5.63236,5.93786 -6.0943,7.3933 -0.50557,1.59289 -1.66266,2.33053 -2.90683,1.8531 -3.06927,-1.17779 -5.85808,1.81499 -6.9084,7.41366 -1.24274,6.62441 0.088,10.5957 3.18212,9.49695 1.51033,-0.53632 0.85879,0.80468 -1.75455,3.61119 -2.91783,3.13353 -4.47379,3.95174 -5.21972,2.74482 -0.81099,-1.31223 -2.25485,-1.151 -6.09602,0.68073 l -5.03333,2.40023 0,-13.41215 c 0,-10.9791 -0.38482,-13.41215 -2.12132,-13.41215 -1.71072,0 -2.12965,2.25828 -2.16433,11.66726 -0.0494,13.3852 -1.66129,12.56909 -4.47544,-2.26585 -0.98089,-5.17078 -2.4338,-9.40091 -3.22868,-9.4003 -2.82273,0.002 -19.12293,8.38828 -19.12293,9.83833 0,0.81085 -1.16493,1.47427 -2.58875,1.47427 -1.42381,0 -5.61417,1.53166 -9.31191,3.40369 l -6.72316,3.4037 -1.33856,-3.83979 c -0.89492,-2.56715 -3.78481,-5.10559 -8.71931,-7.65893 l -7.38075,-3.81913 7.33062,0.83947 c 16.56313,1.89675 31.85481,-5.54916 40.13069,-19.54064 3.50365,-5.92337 4.20788,-6.57329 3.46088,-3.19397 -2.18446,9.88223 -14.63718,20.7182 -26.98501,23.48152 -7.91178,1.77058 -9.31772,3.66383 -5.53206,7.4495 2.56591,2.56591 4.67451,1.8214 23.96927,-8.46317 13.62309,-7.26144 19.98752,-8.27963 35.02672,-5.60362 6.07317,1.08064 7.16104,0.83151 11.79147,-2.70029 2.80557,-2.13991 7.31168,-7.34655 10.01358,-11.5703 7.10444,-11.10602 14.16352,-13.13104 23.54694,-6.75484 2.92757,1.98933 8.64377,4.16605 12.70266,4.83714 4.05889,0.67109 8.44472,1.63841 9.74628,2.14959 2.70661,1.06301 18.27588,18.245 20.74234,22.8909 2.29804,4.32865 2.04235,17.3351 -0.4814,24.48816 -3.24243,9.19003 -2.73305,11.01036 5.80111,20.73089 7.82396,8.91162 7.89323,9.0683 5.57445,12.60722 -1.29139,1.9709 -3.42458,3.9139 -4.74045,4.31779 -1.31585,0.40388 -3.49752,1.32427 -4.84815,2.04531 -3.57605,1.90909 -4.50145,1.60842 -2.49406,-0.81034 0.96829,-1.16673 2.82813,-2.12132 4.13295,-2.12132 3.27685,0 5.76654,-2.79871 5.76654,-6.48224 0,-3.46674 -10.52731,-13.81459 -13.16102,-12.93668 -0.90794,0.30265 -2.99896,5.40316 -4.6467,11.33448 -1.64774,5.93132 -4.04264,12.38176 -5.32201,14.33432 -2.58165,3.9401 -3.06295,7.89225 -0.96111,7.89225 0.75076,0 3.61454,-1.97511 6.36396,-4.38914 2.74943,-2.41403 4.99896,-3.79775 4.99896,-3.07494 0,1.85782 -5.28489,6.44695 -12.72792,11.05228 -3.50018,2.16571 -9.86414,6.94458 -14.14214,10.61972 -8.8249,7.58127 -16.83941,11.97876 -24.42515,13.40185 -4.62581,0.86781 -5.29979,1.5463 -6.08774,6.12848 -6.14713,35.7482 -20.07671,68.1575 -37.60722,87.49897 -6.61067,7.29358 -6.97546,9.74795 -0.98869,6.65207 4.61464,-2.38633 6.80828,-1.29283 6.86175,3.42044 0.0281,2.47588 -7.97347,10.14658 -13.78936,13.21918 -4.75122,2.51013 -11.69708,15.36883 -11.59397,21.46361 0.0874,5.16962 5.79731,10.20687 21.16234,18.66955 12.82269,7.06241 23.81854,13.87949 36.416,22.57675 3.93674,2.71792 4.0059,5.34755 0.29847,11.3463 -1.58592,2.56609 -3.27421,7.96459 -3.75175,11.99664 l -0.86826,7.33101 7.64084,-1.21767 c 25.46965,-4.05893 34.21994,2.34797 32.75383,23.98211 -0.68395,10.09235 -1.05301,11.18367 -4.18476,12.37437 -1.88908,0.71822 -5.22242,1.30586 -7.40744,1.30586 -2.18503,0 -6.75746,0.99202 -10.16098,2.2045 -8.59892,3.0633 -42.92987,8.72413 -59.92833,9.88158 -17.66357,1.20274 -22.84873,3.39807 -35.99823,15.24124 -12.11428,10.9108 -28.27958,19.77515 -42.79225,23.46544 -12.39824,3.15262 -35.080051,4.5497 -47.988533,2.95582 z m 4.384273,-5.6227 c -7.42516,-1.38567 -16.150254,-3.87132 -19.389097,-5.52366 -7.092983,-3.61857 -10.434583,-4.00282 -7.267451,-0.83569 4.144631,4.14462 21.199661,9.09194 30.964452,8.98214 l 9.192386,-0.10338 -13.50029,-2.51942 0,10e-6 z m 20.12942,1.81974 c -1.02089,-0.40852 -2.24065,-0.35829 -2.71058,0.11158 -0.46993,0.46993 0.36534,0.80418 1.85616,0.74277 1.64747,-0.0679 1.98258,-0.40296 0.85442,-0.85441 l 0,6e-5 z m 29.68875,-4.5354 c 9.94641,-3.42205 16.71513,-6.92833 16.71513,-8.6586 0,-0.74774 -2.70468,-0.0977 -6.01041,1.44452 -3.30572,1.54221 -10.14698,4.3534 -15.20279,6.24704 -10.79109,4.04183 -6.88176,4.88228 4.49807,0.96704 z m 80.35474,-38.33916 c 1.51368,-0.97821 -0.30925,-1.43476 -6.36396,-1.59386 -6.5582,-0.17232 -5.12172,-0.48046 6.32518,-1.35681 8.14575,-0.62361 15.09307,-0.85121 15.43849,-0.50579 0.34542,0.34542 -0.71326,0.62804 -2.35263,0.62804 -1.63935,0 -3.35694,0.60884 -3.81685,1.35299 -2.11617,3.42402 33.73638,-4.12173 47.2928,-9.95353 5.27212,-2.26801 7.24389,-4.13528 9.69571,-9.18187 4.33404,-8.92077 4.01514,-13.7043 -1.20655,-18.09806 -5.52669,-4.6504 -11.65025,-5.72803 -21.84256,-3.84387 -9.54748,1.76493 -11.43403,3.02223 -12.49504,8.32734 -1.09283,5.46414 -5.45298,10.54679 -11.81042,13.76749 -2.98603,1.51273 -6.86103,3.98177 -8.61112,5.48673 -2.21733,1.90677 -3.18198,2.1664 -3.18198,0.8564 0,-1.40154 -0.65269,-1.28925 -2.56489,0.44128 -1.49754,1.35526 -3.11595,1.80537 -3.88909,1.08165 -0.7283,-0.68174 -8.62943,-0.83215 -17.55805,-0.33424 -16.19749,0.90328 -16.23699,0.91419 -17.62641,4.87765 -1.63902,4.67546 0.2826,6.5206 6.99021,6.71199 3.65598,0.10437 3.85154,0.28912 1.41421,1.33647 -1.85374,0.79659 1.80133,1.24221 10.6066,1.29316 7.38927,0.0427 14.38962,-0.53915 15.55635,-1.29316 z m -48.43615,-58.33631 c -0.89099,-2.67596 -5.30396,-3.05639 -5.30396,-0.45724 0,1.31187 1.20914,2.22501 2.94627,2.22501 1.72813,0 2.70293,-0.73089 2.35769,-1.76777 z"
     id="path4172"
     inkscape:connector-curvature="0" />
  <path
     style="fill:#ff0000;fill-opacity:1;stroke:none;stroke-width:3;stroke-linecap:square;stroke-miterlimit:4;stroke-dasharray:none;stroke-opacity:1"
     d="m 135.45355,181.06919 c -3.94472,-10.3291 -1.15326,-20.40128 7.16459,-25.85134 3.18144,-2.08456 4.6741,-2.14931 13.06211,-0.56661 8.41055,1.58696 11.13169,1.46457 24.31911,-1.09379 20.85354,-4.0456 22.62709,-4.27294 22.62709,-2.90044 0,0.66995 0.95459,1.2181 2.12132,1.2181 1.16672,0 2.12132,-0.54962 2.12132,-1.22137 0,-1.86961 -7.24129,-8.69351 -11.63787,-10.96708 -2.15516,-1.11448 -3.91848,-2.31524 -3.91848,-2.66837 0,-0.80326 9.58128,-5.67698 13.59775,-6.91677 2.71741,-0.8388 3.15087,-0.1112 4.73635,7.95027 3.45036,17.5435 6.81584,18.51308 7.4838,2.15606 l 0.47644,-11.66727 0.28786,12.27807 c 0.2864,12.21575 0.26587,12.29373 -4.04298,15.3619 -3.82053,2.72046 -5.02864,2.90751 -10.25305,1.58747 -14.92635,-3.7714 -24.52254,-2.68985 -35.27822,3.97607 -3.70073,2.29356 -9.13244,4.81739 -12.07047,5.60852 -6.14429,1.65449 -13.38008,8.52569 -16.2922,15.47132 l -2.00659,4.78586 -2.49788,-6.5406 z"
     id="path4174"
     inkscape:connector-curvature="0" />
  <path
     style="fill:#ff0000;fill-opacity:1;stroke:none;stroke-width:3;stroke-linecap:square;stroke-miterlimit:4;stroke-dasharray:none;stroke-opacity:1"
     d="m 135.56291,183.29954 c -2.95705,-5.96963 -3.42759,-12.06946 -1.41166,-18.30032 1.09287,-3.37784 2.48281,-5.6877 4.85584,-8.06961 1.75554,-1.76211 2.42304,-2.23598 4.72879,-3.35702 3.84085,-1.8674 4.75127,-1.80365 13.02612,0.91222 0.79853,0.26208 -1.14973,0.0437 -3.625,-0.40639 -3.99846,-0.72701 -7.01076,-0.73495 -8.59157,-0.0226 -1.61493,0.72766 -4.01021,2.47161 -5.44679,3.96566 -3.90848,4.06485 -5.67558,8.9747 -5.38183,14.95326 0.17657,3.59349 0.52648,5.12048 2.19143,9.56331 0.69423,1.85251 1.21463,3.4158 1.15645,3.47397 -0.0582,0.0582 -0.73397,-1.16241 -1.50178,-2.71243 z"
     id="path4176"
     inkscape:connector-curvature="0" />
  <path
     style="fill:#ff0000;fill-opacity:1;stroke:none;stroke-width:3;stroke-linecap:square;stroke-miterlimit:4;stroke-dasharray:none;stroke-opacity:1"
     d="m 143.2755,195.04383 c -1.28655,-1.468 -5.1385,-7.00886 -5.1385,-7.39151 0,-0.13558 0.33575,-1.01701 0.7461,-1.95875 l 0.7461,-1.71224 -0.15495,1.43265 c -0.27314,2.52544 0.69344,4.70435 1.9149,4.31667 0.63035,-0.20006 2.24513,-2.62188 3.75012,-5.62432 2.03534,-4.06051 5.16989,-8.08993 8.17514,-10.50903 2.14889,-1.72977 2.6824,-1.94534 3.34051,-1.34975 0.68926,0.62377 0.59863,1.55151 -0.33042,3.38249 -0.67305,1.32647 -1.13945,1.84539 -2.71752,3.02356 -3.06577,2.28887 -4.54332,4.74993 -6.35052,10.57773 -1.30112,4.19584 -2.37976,7.125 -2.62371,7.125 -0.11384,0 -0.7246,-0.59062 -1.35725,-1.3125 z"
     id="path4178"
     inkscape:connector-curvature="0" />
  <path
     style="fill:#ff0000;fill-opacity:1;stroke:none;stroke-width:3;stroke-linecap:square;stroke-miterlimit:4;stroke-dasharray:none;stroke-opacity:1"
     d="m 143.73923,195.30372 c -1.91373,-2.05723 -5.3591,-7.10011 -5.33369,-7.80676 0.0102,-0.28359 0.22686,-0.96563 0.48146,-1.51563 l 0.46292,-1 0.0185,1.30744 c 0.0256,1.8021 0.6483,3.27786 1.47024,3.48415 0.85833,0.21543 1.77055,-0.84013 3.53748,-4.09339 3.12808,-5.75936 5.72933,-9.24486 8.81825,-11.81589 1.96386,-1.6346 2.74031,-1.98639 3.32082,-1.50461 0.95996,0.7967 -0.0548,3.50292 -1.9676,5.2473 -3.52847,3.2178 -4.30566,4.12978 -5.32628,6.25 -0.5626,1.16875 -1.71574,4.21836 -2.56255,6.7769 -0.8468,2.55855 -1.67799,4.84112 -1.8471,5.07239 -0.27845,0.38081 -0.37966,0.34288 -1.07249,-0.4019 z"
     id="path4180"
     inkscape:connector-curvature="0" />
  <path
     style="fill:#ff0000;fill-opacity:1;stroke:none;stroke-width:3;stroke-linecap:square;stroke-miterlimit:4;stroke-dasharray:none;stroke-opacity:1"
     d="m 143.36534,194.91846 c -1.39976,-1.55687 -4.98387,-6.81265 -4.9807,-7.30377 0.001,-0.20165 0.19924,-0.87665 0.43986,-1.5 l 0.4375,-1.13336 0.14578,1.69699 c 0.15203,1.7699 0.75844,2.97463 1.57841,3.13581 0.6508,0.12792 1.87846,-1.40657 3.50375,-4.37945 2.55697,-4.67703 4.58762,-7.54153 7.14459,-10.07835 3.70892,-3.6797 5.14364,-4.15413 5.11401,-1.69111 -0.0186,1.5495 -1.16624,3.25422 -3.45561,5.13321 -3.06071,2.51208 -4.31117,4.79796 -6.8843,12.58474 -0.70915,2.14602 -1.4331,4.09842 -1.60878,4.33869 -0.29102,0.39799 -0.4186,0.32654 -1.43451,-0.8034 z"
     id="path4182"
     inkscape:connector-curvature="0" />
  <path
     style="fill:#ff0000;fill-opacity:1;stroke:none;stroke-width:3;stroke-linecap:square;stroke-miterlimit:4;stroke-dasharray:none;stroke-opacity:1"
     d="m 143.28679,194.83109 c -1.59286,-1.77164 -4.90417,-6.74394 -4.89458,-7.34976 0.004,-0.275 0.21123,-0.95 0.45974,-1.5 l 0.45184,-1 0.14023,1.71755 c 0.1453,1.77962 0.72245,2.95407 1.52972,3.11285 0.65369,0.12857 1.71626,-1.25692 3.86787,-5.04334 2.74736,-4.83481 4.24187,-6.89915 6.90452,-9.53706 3.58252,-3.54924 5.03172,-4.00294 5.00241,-1.56611 -0.0183,1.51863 -1.15827,3.24844 -3.33672,5.06306 -3.14434,2.61921 -4.20217,4.49253 -6.72437,11.90824 -1.39918,4.11384 -1.93491,5.46981 -2.16108,5.46981 -0.0512,0 -0.60898,-0.57386 -1.23958,-1.27524 z"
     id="path4184"
     inkscape:connector-curvature="0" />
  <path
     style="fill:#ff0000;fill-opacity:1;stroke:none;stroke-width:3;stroke-linecap:square;stroke-miterlimit:4;stroke-dasharray:none;stroke-opacity:1"
     d="m 143.28679,194.83109 c -1.59286,-1.77164 -4.90417,-6.74394 -4.89458,-7.34976 0.004,-0.275 0.21095,-0.95 0.45912,-1.5 l 0.45121,-1 0.13985,1.52196 c 0.15371,1.67284 0.69333,2.95312 1.35107,3.20552 0.70335,0.2699 1.73633,-0.9828 3.89828,-4.72748 2.98141,-5.16406 4.2968,-6.98817 6.94072,-9.625 3.50116,-3.49178 5.00539,-4.07678 5.20875,-2.02572 0.14009,1.41303 -0.87995,2.97578 -3.85153,5.90072 -3.29099,3.23934 -3.73611,4.03987 -6.11633,11 -1.42484,4.16645 -2.10669,5.875 -2.3446,5.875 -0.0525,0 -0.61136,-0.57386 -1.24196,-1.27524 z"
     id="path4186"
     inkscape:connector-curvature="0" />
  <path
     style="fill:#ff0000;fill-opacity:1;stroke:none;stroke-width:3;stroke-linecap:square;stroke-miterlimit:4;stroke-dasharray:none;stroke-opacity:1"
     d="m 143.47362,195.04383 c -0.97513,-1.0604 -3.48651,-4.50428 -4.53362,-6.21701 -0.66491,-1.08756 -0.67905,-1.53641 -0.0896,-2.84549 l 0.45026,-1 0.16501,1.56877 c 0.18153,1.72583 0.67666,2.90884 1.32094,3.15607 0.65213,0.25025 2.02344,-1.40377 3.82958,-4.61909 2.5483,-4.53654 4.45379,-7.18013 7.01387,-9.73075 3.44875,-3.436 4.98558,-4.06257 5.21458,-2.126 0.17833,1.50806 -0.66738,2.84946 -3.69292,5.85749 -3.41203,3.39228 -3.86676,4.196 -6.23402,11.01851 -1.89693,5.46699 -2.10157,6 -2.30364,6 -0.0898,0 -0.60302,-0.47812 -1.14041,-1.0625 z"
     id="path4188"
     inkscape:connector-curvature="0" />
  <path
     style="fill:#ff0000;fill-opacity:1;stroke:none;stroke-width:3;stroke-linecap:square;stroke-miterlimit:4;stroke-dasharray:none;stroke-opacity:1"
     d="m 143.58358,195.16883 c -1.26109,-1.30653 -4.91635,-6.48002 -5.10256,-7.22193 -0.0879,-0.35005 0.0391,-1.11617 0.29635,-1.78891 l 0.45001,-1.17666 0.29906,1.77148 c 0.3737,2.21361 0.70411,2.85352 1.47335,2.85352 0.77447,0 1.58898,-1.04922 3.88151,-5 2.74001,-4.72194 4.14233,-6.64366 6.7522,-9.25316 3.43089,-3.4304 4.98178,-4.06218 5.21111,-2.12284 0.17551,1.48422 -0.66894,2.84269 -3.55944,5.72606 -3.34755,3.3393 -4.12802,4.70721 -6.36167,11.14994 -1.8372,5.29921 -2.10473,6 -2.29057,6 -0.0794,0 -0.55165,-0.42187 -1.04935,-0.9375 z"
     id="path4190"
     inkscape:connector-curvature="0" />
  <path
     style="fill:#ff0000;fill-opacity:1;stroke:none;stroke-width:3;stroke-linecap:square;stroke-miterlimit:4;stroke-dasharray:none;stroke-opacity:1"
     d="m 143.59256,195.16883 c -1.07486,-1.12474 -3.71795,-4.69301 -4.63385,-6.25589 -0.61637,-1.05175 -0.63842,-1.19516 -0.35013,-2.27703 0.37342,-1.40133 0.77842,-1.90439 0.77842,-0.96688 0,1.03884 0.48969,3.01501 0.87474,3.53011 0.8792,1.17612 1.86357,0.0872 5.50786,-6.09281 2.31526,-3.92625 3.32161,-5.25384 5.96948,-7.875 3.34566,-3.31192 4.87943,-3.91304 5.10553,-2.001 0.17036,1.44062 -0.68852,2.88131 -3.23699,5.42978 -3.8091,3.80909 -4.36091,4.78103 -6.92434,12.19622 -1.8515,5.35581 -1.81075,5.25 -2.02229,5.25 -0.0949,0 -0.57568,-0.42187 -1.06843,-0.9375 z"
     id="path4192"
     inkscape:connector-curvature="0" />
  <path
     style="fill:#ff0000;fill-opacity:1;stroke:none;stroke-width:3;stroke-linecap:square;stroke-miterlimit:4;stroke-dasharray:none;stroke-opacity:1"
     d=""
     id="path4194"
     inkscape:connector-curvature="0" />
  <path
     style="fill:#ff0000;fill-opacity:1;stroke:none;stroke-width:3;stroke-linecap:square;stroke-miterlimit:4;stroke-dasharray:none;stroke-opacity:1"
     d=""
     id="path4196"
     inkscape:connector-curvature="0" />
  <path
     style="fill:#ff0000;fill-opacity:1;stroke:none;stroke-width:3;stroke-linecap:square;stroke-miterlimit:4;stroke-dasharray:none;stroke-opacity:1"
     d=""
     id="path4198"
     inkscape:connector-curvature="0" />
</svg>
